<?xml version="1.0" encoding="utf-8"?>
<!-- Generator: Adobe Illustrator 16.0.0, SVG Export Plug-In . SVG Version: 6.00 Build 0)  -->
<!DOCTYPE svg PUBLIC "-//W3C//DTD SVG 1.1//EN" "http://www.w3.org/Graphics/SVG/1.1/DTD/svg11.dtd">
<svg version="1.1" id="Layer_1" xmlns="http://www.w3.org/2000/svg" xmlns:xlink="http://www.w3.org/1999/xlink" x="0px" y="0px"
	 width="312px" height="160px" viewBox="0 0 312 160" enable-background="new 0 0 312 160" xml:space="preserve">
<g>
	<path fill="#025B5B" d="M311.851,96.699h-27.295v8.876h8.62v26.319h10.056v-26.319h8.62V96.699z M280.607,96.699h-27.294v8.876
		h8.619v26.319h10.056v-26.319h8.62V96.699z M237.665,96.699v18.163l-13.853-18.266l-8.723,0.104v35.195h10.056v-18.161
		l13.801,18.265l8.773-0.104V96.699H237.665z M194.617,123.225v-4.773h12.418v-8.156h-12.418v-4.926h13.442v-8.671h-23.497v35.195
		h23.754v-8.669H194.617z M159.115,123.02h-2.874v-17.497h2.874c5.746,0,8.517,3.49,8.517,8.929
		C167.632,119.889,164.86,123.02,159.115,123.02 M159.269,96.699h-13.084v35.195h13.084c11.082,0,18.727-6.464,18.727-17.442
		C177.996,103.47,170.351,96.699,159.269,96.699 M116.274,126.252l0.256,3.078c1.642,1.129,5.285,2.873,10.313,2.873
		c6.465,0,10.569-3.128,10.569-9.082c0-12.876-18.315-7.695-18.315-17.905c0-4.207,2.822-6.363,7.388-6.363
		c4.515,0,7.85,1.59,10.108,3.182l-0.309-3.078c-2.104-1.334-5.284-2.566-9.954-2.566c-6.772,0-10.004,3.746-10.004,8.825
		c0,12.671,18.315,7.439,18.315,17.905c0,4.773-3.54,6.619-7.849,6.619C122.02,129.74,118.378,127.689,116.274,126.252
		 M87.646,126.252l0.257,3.078c1.641,1.129,5.285,2.873,10.312,2.873c6.464,0,10.569-3.128,10.569-9.082
		c0-12.876-18.315-7.695-18.315-17.905c0-4.207,2.821-6.363,7.388-6.363c4.515,0,7.85,1.59,10.107,3.182l-0.308-3.078
		c-2.104-1.334-5.284-2.566-9.954-2.566c-6.772,0-10.004,3.746-10.004,8.825c0,12.671,18.316,7.439,18.316,17.905
		c0,4.773-3.54,6.619-7.85,6.619C93.393,129.74,89.75,127.689,87.646,126.252 M55.478,96.699H52.45v20.368
		c0,10.623,4.618,15.136,13.751,15.136c9.132,0,13.75-4.513,13.75-15.136V96.699h-3.026v20.522c0,9.082-3.848,12.314-10.723,12.314
		s-10.723-3.232-10.723-12.314V96.699z M32.186,129.33V96.699h-3.028v35.195h19.496l0.257-2.82L32.186,129.33z M9.816,114.399H3.455
		V99.265h6.361c6.106,0,9.492,2.104,9.492,7.541C19.308,112.245,15.922,114.399,9.816,114.399 M9.663,96.699H0.428v35.195h3.027
		v-14.981h6.208c8.208,0,12.723-3.384,12.723-10.107C22.386,99.828,18.077,96.699,9.663,96.699"/>
	<path fill="#C9E2B1" d="M171.438,152.249c0-1.543,0.791-2.65,2.191-2.65c1.399,0,2.209,1.107,2.209,2.65
		c0,1.547-0.81,2.652-2.209,2.652C172.229,154.901,171.438,153.795,171.438,152.249 M168.954,152.249
		c0,2.818,1.933,4.623,4.675,4.623c2.762,0,4.694-1.804,4.694-4.623c0-2.834-1.933-4.619-4.694-4.619
		C170.887,147.629,168.954,149.415,168.954,152.249 M167.353,150.555l-0.147-2.207c-0.442-0.295-1.399-0.719-2.982-0.719
		c-2.559,0-4.547,1.455-4.547,4.619c0,3.168,1.988,4.623,4.547,4.623c1.619,0,2.651-0.498,2.982-0.736l0.147-2.191
		c-0.534,0.369-1.419,0.939-2.779,0.939c-1.4,0-2.413-0.736-2.413-2.635c0-1.838,0.976-2.631,2.413-2.631
		C165.897,149.618,166.782,150.151,167.353,150.555 M155.258,147.831v8.929h2.485v-9.056L155.258,147.831z M156.51,146.284
		c0.81,0,1.435-0.625,1.435-1.434c0-0.791-0.625-1.438-1.435-1.438c-0.81,0-1.437,0.646-1.437,1.438
		C155.074,145.659,155.7,146.284,156.51,146.284 M147.986,154.368c-1.271,0-2.264-0.883-2.264-2.375s0.994-2.375,2.264-2.375
		c1.472,0,2.338,1.088,2.338,2.283v0.184C150.324,153.282,149.44,154.368,147.986,154.368 M150.711,147.813l-0.186,1.141
		c-0.625-0.791-1.693-1.324-3.092-1.324c-2.521,0-4.161,1.785-4.161,4.363c0,2.576,1.712,4.363,4.161,4.363
		c1.271,0,2.246-0.461,2.89-1.162v0.314c0,1.822-0.92,2.503-2.872,2.503c-1.583,0-2.724-0.645-3.387-1.068l0.294,2.266
		c0.607,0.332,1.602,0.791,3.442,0.791c3.241,0,4.953-1.492,4.953-4.712v-7.641L150.711,147.813z M134.769,152.249
		c0-1.543,0.792-2.65,2.19-2.65c1.399,0,2.209,1.107,2.209,2.65c0,1.547-0.81,2.652-2.209,2.652
		C135.56,154.901,134.769,153.795,134.769,152.249 M132.282,152.249c0,2.818,1.934,4.623,4.677,4.623
		c2.761,0,4.694-1.804,4.694-4.623c0-2.834-1.933-4.619-4.694-4.619C134.216,147.629,132.282,149.415,132.282,152.249
		 M135.745,146.69l2.412-0.092l1.987-3.186l-2.742-0.09L135.745,146.69z M130.314,143.323l-2.431,0.236v13.2h2.431V143.323z
		 M119.009,152.249c0-1.543,0.793-2.65,2.193-2.65c1.397,0,2.209,1.107,2.209,2.65c0,1.547-0.812,2.652-2.209,2.652
		C119.802,154.901,119.009,153.795,119.009,152.249 M116.525,152.249c0,2.818,1.933,4.623,4.677,4.623
		c2.76,0,4.692-1.804,4.692-4.623c0-2.834-1.933-4.619-4.692-4.619C118.458,147.629,116.525,149.415,116.525,152.249
		 M113.892,154.809c-0.661,0-1.048-0.295-1.048-1.307v-3.939h2.375v-1.822h-2.375v-3.187l-2.247,0.424l-0.183,2.763h-1.473v1.822
		h1.473v4.232c0,2.228,0.938,3.076,2.853,3.076c1.16,0,1.878-0.312,2.153-0.441l0.166-2.025
		C115.2,154.588,114.647,154.809,113.892,154.809 M104.1,147.629c-1.509,0-2.651,0.791-3.37,1.805l-0.183-1.787l-1.877,0.129v8.984
		h2.429v-4.566c0-1.307,1.032-2.447,2.412-2.447c1.179,0,1.675,0.773,1.675,2.191v4.822h2.431v-5.246
		C107.616,148.661,106.198,147.629,104.1,147.629 M89.925,152.249c0-1.543,0.791-2.65,2.191-2.65c1.398,0,2.209,1.107,2.209,2.65
		c0,1.547-0.811,2.652-2.209,2.652C90.716,154.901,89.925,153.795,89.925,152.249 M87.44,152.249c0,2.818,1.933,4.623,4.676,4.623
		c2.761,0,4.693-1.804,4.693-4.623c0-2.834-1.932-4.619-4.693-4.619C89.373,147.629,87.44,149.415,87.44,152.249 M80.629,154.901
		c-1.289,0-2.191-0.902-2.191-2.652c0-1.748,0.921-2.65,2.191-2.65c1.491,0,2.411,1.16,2.411,2.486v0.332
		C83.04,153.741,82.12,154.901,80.629,154.901 M83.04,143.56v5.359c-0.626-0.791-1.601-1.289-2.945-1.289
		c-2.43,0-4.142,1.785-4.142,4.619c0,2.836,1.712,4.623,4.16,4.623c1.38,0,2.413-0.572,3.02-1.437l0.202,1.326h2.136v-13.437
		L83.04,143.56z M64.871,150.446c0-2.871,1.546-4.177,3.498-4.177c1.934,0,3.479,1.306,3.479,4.177c0,2.816-1.546,4.178-3.479,4.178
		C66.343,154.624,64.871,153.262,64.871,150.446 M62.276,150.446c0,4.178,2.705,6.425,6.092,6.425c3.369,0,6.075-2.248,6.075-6.425
		c0-4.251-2.706-6.425-6.075-6.425C64.981,144.021,62.276,146.194,62.276,150.446 M48.689,152.249c0-1.543,0.792-2.65,2.191-2.65
		c1.398,0,2.208,1.107,2.208,2.65c0,1.547-0.81,2.652-2.208,2.652C49.481,154.901,48.689,153.795,48.689,152.249 M46.204,152.249
		c0,2.818,1.932,4.623,4.677,4.623c2.762,0,4.694-1.804,4.694-4.623c0-2.834-1.932-4.619-4.694-4.619
		C48.136,147.629,46.204,149.415,46.204,152.249 M45.1,147.629c-1.178,0-2.19,0.828-2.76,1.785l-0.128-1.768l-2.062,0.24v8.873h2.43
		v-4.656c0-1.143,1.122-2.1,2.78-2.1L45.1,147.629z M36.872,154.809c-0.662,0-1.049-0.295-1.049-1.307v-3.939h2.375v-1.822h-2.375
		v-3.187l-2.246,0.424l-0.185,2.763H31.92v1.822h1.472v4.232c0,2.228,0.938,3.076,2.854,3.076c1.16,0,1.878-0.312,2.154-0.441
		l0.165-2.025C38.179,154.588,37.627,154.809,36.872,154.809 M27.079,147.629c-1.51,0-2.651,0.791-3.37,1.805l-0.184-1.787
		l-1.878,0.129v8.984h2.43v-4.566c0-1.307,1.031-2.447,2.412-2.447c1.178,0,1.676,0.773,1.676,2.191v4.822h2.43v-5.246
		C30.595,148.661,29.178,147.629,27.079,147.629 M15.721,149.36c1.178,0,1.601,0.902,1.675,2.062h-3.59
		C13.99,150.114,14.653,149.36,15.721,149.36 M13.788,152.858h5.91v-0.977c0-2.633-1.197-4.252-3.939-4.252
		c-2.799,0-4.437,1.969-4.437,4.619c0,2.984,1.876,4.623,4.841,4.623c1.786,0,2.854-0.424,3.277-0.682l0.129-2.08
		c-0.663,0.332-1.694,0.773-3.204,0.773S13.99,154.219,13.788,152.858 M2.558,150.465c0-2.854,1.547-4.197,3.792-4.197
		c1.822,0,3.038,0.697,3.737,1.195l-0.128-2.466c-0.571-0.406-1.676-0.977-3.775-0.977c-3.552,0-6.185,2.264-6.185,6.445
		c0,4.178,2.632,6.406,6.185,6.406c2.025,0,3.204-0.59,3.775-0.996l0.128-2.464c-0.699,0.516-1.915,1.213-3.737,1.213
		C4.105,154.624,2.558,153.319,2.558,150.465"/>
	<path fill="#025B5B" d="M133.809,42.018c-2.51,5.36-6.528,10.948-17.819,10.948c-11.289,0-15.31-5.588-17.819-10.948l-3.563,2.366
		c1.711,5.131,6.387,14.228,21.382,14.228c14.997,0,19.672-9.095,21.383-14.228L133.809,42.018z"/>
	<path fill="#C9E2B1" d="M133.809,42.018l3.564,2.366c-1.711,5.132-6.387,14.228-21.383,14.228
		c-14.996,0-19.671-9.096-21.381-14.228l3.562-2.366c2.509,5.36,6.53,10.948,17.819,10.948
		C127.28,52.966,131.299,47.378,133.809,42.018 M157.896,24.547L98.631,0L74.083,59.264l59.264,24.547L157.896,24.547z"/>
</g>
</svg>
